<svg viewBox="0 0 48 64" xmlns="http://www.w3.org/2000/svg">
  <defs>
    <linearGradient id="flameGrad" x1="0%" y1="100%" x2="0%" y2="0%">
      <stop offset="0%" stop-color="#ff4757"/>
      <stop offset="40%" stop-color="#ff6b2b"/>
      <stop offset="80%" stop-color="#f5a623"/>
      <stop offset="100%" stop-color="#ffd700"/>
    </linearGradient>
  </defs>
  <path d="M24 60 C10 48, 2 32, 10 16 C14 10, 20 6, 24 2 C28 6, 34 10, 38 16 C46 32, 38 48, 24 60Z" fill="url(#flameGrad)" opacity="0.85"/>
  <path d="M24 54 C14 44, 8 30, 14 20 C17 14, 22 10, 24 6 C26 10, 31 14, 34 20 C40 30, 34 44, 24 54Z" fill="#ff6b2b" opacity="0.7"/>
  <path d="M24 48 C18 40, 14 28, 18 22 C20 18, 22 14, 24 12 C26 14, 28 18, 30 22 C34 28, 30 40, 24 48Z" fill="#f5a623" opacity="0.8"/>
</svg>
